<svg xmlns="http://www.w3.org/2000/svg" width="128.173" height="16.328"><path fill="#FFF" d="M0 3.33v11.86c0 .096.076.174.172.177.945.025 5.541.184 7.631.953.127.047.222-.123.115-.207-.846-.659-2.68-1.715-6.15-2.218a.177.177 0 01-.153-.174V3.33a.178.178 0 00-.178-.178H.177A.178.178 0 000 3.33"/><path fill="#FFF" d="M2.62 2.159h1.134c.098 0 .178.08.178.178v9.712c0 .076.046.143.118.167.645.228 3.781 1.4 5.439 3.241.091.103-.036.254-.153.182-1.243-.768-4.2-2.414-6.715-2.432a.177.177 0 01-.179-.177V2.337c0-.099.08-.178.178-.178M21.151 3.33v11.86a.177.177 0 01-.172.177c-.945.025-5.541.184-7.63.953-.128.047-.222-.123-.115-.207.846-.659 2.68-1.715 6.15-2.218a.177.177 0 00.153-.174V3.33c0-.099.08-.178.178-.178h1.259c.098 0 .177.079.177.178"/><path fill="#FFF" d="M18.532 2.159h-1.135a.178.178 0 00-.178.178v9.712a.174.174 0 01-.118.167c-.645.228-3.781 1.4-5.439 3.241-.092.103.036.254.153.182 1.243-.768 4.2-2.414 6.715-2.432a.178.178 0 00.179-.177V2.337a.178.178 0 00-.177-.178M13.182 6.595c0-.285-.084-.543-.253-.775a1.312 1.312 0 00-.656-.483c-.039.051-.056.086-.052.103.009.083.029.138.059.166.03.028.063.036.097.022.035-.013.07-.025.104-.039.034-.014.056-.015.065-.006.047.051.047.103 0 .152a1.45 1.45 0 00-.146.181c-.05.072-.051.155-.003.25.073.139.177.208.311.208.061.004.107.043.14.117a.605.605 0 01.055.214.93.93 0 01-.045.455c-.047.094-.033.177.045.246.186-.242.279-.512.279-.811m-1.745 1.266c.142.043.281.065.416.065.276 0 .521-.074.733-.221-.056-.095-.184-.132-.383-.111a.882.882 0 00-.212.056l-.153.055c-.16.035-.243.052-.247.052a.174.174 0 00-.084.045 1.24 1.24 0 01-.07.059m.233-2.577c-.242.03-.458.121-.646.272s-.325.339-.412.564c.013 0 .037.002.071.007s.065.008.091.01a.544.544 0 01.162.039c.021.011.034.024.039.042.009.027-.007.075-.046.146a.414.414 0 00-.058.198c0 .065.041.125.124.182.082.056.123.106.123.149 0 .061.009.134.026.221.018.086.026.134.026.142 0 .026.039.085.117.176.078.09.134.136.168.136.022 0 .034-.023.036-.071.002-.047 0-.106-.007-.176a1.712 1.712 0 01-.01-.129.78.78 0 01.045-.24.392.392 0 01.191-.227c.102-.061.162-.11.179-.15a.292.292 0 00.029-.197.491.491 0 00-.055-.14.273.273 0 00-.111-.09.842.842 0 00-.252-.085l-.071-.014a.483.483 0 00-.137-.022c-.056-.002-.096.001-.117.01s-.05-.003-.087-.036c-.037-.033-.055-.064-.055-.094 0-.022.017-.052.049-.088a2.37 2.37 0 01.114-.12 1.79 1.79 0 00.091-.097.238.238 0 01.055-.069l.071-.052c.028-.019.057-.042.088-.067a.51.51 0 01.081-.055.259.259 0 00.088-.075m.182-.246c.433 0 .8.152 1.103.458.302.305.454.672.454 1.1 0 .433-.152.801-.454 1.104a1.5 1.5 0 01-1.103.454c-.429 0-.795-.151-1.1-.454a1.498 1.498 0 01-.458-1.104c0-.428.152-.795.458-1.1a1.495 1.495 0 011.1-.458M9.988 3.325v-.338h.916v.338a.831.831 0 01-.461.129.825.825 0 01-.455-.129m-.331-2.142c-.009.008-.009.03 0 .064.009.035.011.057.007.065-.005.009 0 .029.016.062a.165.165 0 01.02.058c-.003.006.006.026.025.059a.811.811 0 00.078.123l.045.061.049.069.052.074c.19.264.312.494.364.688h.266c.052-.204.173-.433.363-.688l.081-.114c.045-.063.073-.101.082-.117l.055-.094a.472.472 0 00.072-.197.427.427 0 00.003-.113c-.035-.424-.299-.637-.792-.637-.489 0-.751.212-.786.637m1.227 1.609h-.876a.963.963 0 00-.117-.455 1.698 1.698 0 00-.254-.367 1.493 1.493 0 01-.24-.364.857.857 0 01-.084-.45c.017-.259.119-.482.304-.668.187-.187.461-.279.825-.279.368 0 .644.093.827.279.185.186.287.409.309.668a.847.847 0 01-.052.367c-.043.115-.1.218-.168.312-.07.093-.14.186-.211.276a1.444 1.444 0 00-.185.312.912.912 0 00-.078.369M9.161 10.32l-.014.006h-.002l-.002.001-.277.1.079.217.295-.107c.056-.02.085-.087.064-.146-.022-.058-.088-.091-.143-.071M9.042 10.023a.115.115 0 00-.143-.07l-.182.066.069.191.246-.09a.11.11 0 00.01-.097"/><path fill="#FFF" d="M9.318 10.756l-.399.145c-.06.021-.133-.011-.154-.071l-.307-.844c-.021-.061.016-.125.076-.147l.286-.104a.343.343 0 01.458.355.352.352 0 01.243.222.346.346 0 01-.203.444m-1.377-.625l.067.186a.446.446 0 00-.209-.19l-.674-.314a.502.502 0 00.289-.014l.83-.302a.498.498 0 00-.303.634m-.286.465a.115.115 0 01-.114.117l-.18.003-.22.471.113.144a.117.117 0 01-.019.164.202.202 0 01-.032.018.116.116 0 01-.13-.037l-.62-.788a.118.118 0 01-.013-.122.114.114 0 01.103-.065l.996-.017a.111.111 0 01.116.112m-.236-2.609a.63.63 0 01.48.02.117.117 0 01.057.154.114.114 0 01-.153.056.402.402 0 10.208.507.114.114 0 01.148-.067c.061.022.09.089.068.148a.63.63 0 01-1.187-.006.634.634 0 01.379-.812m1.744 1.178l-.695.252a.499.499 0 00.292-.639l-.383-1.053a.489.489 0 00-.63-.295l-1.054.381a.499.499 0 00-.303.634L6.772 9.5a.496.496 0 00.175.229l-.027-.014a.486.486 0 00-.378-.016.492.492 0 00-.28.255l-.411.879a.497.497 0 00.239.66l.879.41c.12.056.254.063.379.017a.493.493 0 00.281-.255l.408-.879a.462.462 0 00.04-.281l.197.543a.503.503 0 00.642.298l.917-.333a.497.497 0 00.292-.638l-.333-.915a.488.488 0 00-.629-.295"/><path fill="#FFF" d="M6.779 10.725l.201.257.123-.262zM8.538 4.959a2.302 2.302 0 00-.101-.47.623.623 0 00-.114-.213l-.052-.046.149-.147c.014.01.031.031.05.062.02.03.06.111.117.243.059.131.101.298.127.502.008.047-.004.077-.032.092a.128.128 0 01-.092.013c-.033-.006-.05-.018-.052-.036m-1.867.005l.967.179.597-.546.015.125c.005.045.01.075.011.093a.156.156 0 01-.011.066.246.246 0 01-.044.076.661.661 0 01-.098.089 1.985 1.985 0 00-.171.162c-.057.058-.101.103-.135.132a.229.229 0 01-.09.056.234.234 0 01-.111-.003c-.047-.01-.11-.025-.189-.046s-.156-.035-.231-.043a.739.739 0 01-.311-.098.662.662 0 01-.199-.242m1.866-1.215c.046.011.075.033.085.064.009.033-.003.066-.037.102l-.165.168-.853-.031c-.055-.05-.139-.058-.254-.024a.325.325 0 00-.157.089c-.038.04-.051.08-.039.121s.044.067.098.081.114.011.181-.009a.288.288 0 00.088-.036l.787-.044-.565.582a.318.318 0 01-.303.088L6.18 4.615c-.047-.012-.075-.034-.085-.066-.009-.032.003-.066.036-.101l.879-.897a.319.319 0 01.303-.088l1.224.286zM10.966 14.201a.257.257 0 01-.08.192.268.268 0 01-.197.079.276.276 0 01-.195-.079.29.29 0 01-.062-.085.265.265 0 01.059-.296c.025-.025.056-.044.09-.059s.07-.021.108-.021c.039 0 .074.007.107.021a.315.315 0 01.089.057.298.298 0 01.06.085c.014.035.021.07.021.106m.419-1.259a.503.503 0 01-.188.408c-.04.036-.083.072-.134.109-.03.025-.055.047-.076.067a.245.245 0 00-.047.058.21.21 0 00-.024.063.352.352 0 00-.007.078v.074h-.445v-.107a.59.59 0 01.014-.133.406.406 0 01.043-.107.546.546 0 01.07-.094.987.987 0 01.098-.094l.094-.088a.537.537 0 00.083-.09.188.188 0 00.034-.112.196.196 0 00-.055-.145.212.212 0 00-.153-.055c-.08 0-.139.027-.179.082a.324.324 0 00-.065.184l-.454-.049a.748.748 0 01.079-.27.592.592 0 01.158-.194.695.695 0 01.219-.115.889.889 0 01.51-.005.633.633 0 01.216.102.524.524 0 01.209.433M15.119 10.149a.108.108 0 01-.133-.077.108.108 0 01.077-.132.107.107 0 01.133.076.108.108 0 01-.077.133m-.39-1.244l-2.933.789a.218.218 0 00-.153.267l.508 1.885c.031.115.15.184.266.154l1.2-.324a15.496 15.496 0 01-.256-.268l-.924.248-.451-1.676 2.723-.732.451 1.675-.138.038.061.226a.72.72 0 01.016.09l.251-.067a.217.217 0 00.153-.266l-.507-1.886a.22.22 0 00-.267-.153"/><path fill="#FFF" d="M14.522 10.224l-.012.003a.128.128 0 00-.091.158l.03.111-.015.004-.029-.111a.131.131 0 00-.159-.091l-.012.004a.13.13 0 00-.091.158l.03.11-.015.004-.03-.112a.13.13 0 00-.157-.091l-.013.004a.127.127 0 00-.09.157l.03.111-.008.002-.191-.71a.131.131 0 00-.159-.091l-.012.003a.128.128 0 00-.091.158l.292 1.087a2.698 2.698 0 01-.12-.087c-.081-.062-.144-.11-.2-.107-.063 0-.112.036-.127.085-.014.047.005.101.053.154.103.111.584.595.584.595.043.056.212.23.597.125l-.003-.013.004.013c.279-.075.376-.243.409-.369.034-.138.003-.257.002-.261l-.246-.916a.133.133 0 00-.16-.087M14.571 3.677c-.116 0-.168.134-.168.302-.003.176.06.302.171.302.111 0 .165-.113.165-.302 0-.171-.046-.302-.165-.302h-.003zm.01-.215c.287 0 .449.212.449.499 0 .35-.222.536-.465.536-.253 0-.455-.192-.455-.507 0-.299.184-.527.468-.527h.003zm-1.206 1.039l.966-1.734h.21l-.964 1.734h-.212zm-.017-1.522c-.116 0-.167.134-.167.305-.002.176.06.302.173.302.111 0 .166-.113.166-.305 0-.17-.046-.302-.168-.302h-.004zm.014-.214c.287 0 .45.211.45.501 0 .349-.222.536-.465.536-.256 0-.458-.194-.458-.509 0-.3.183-.527.47-.527h.003zM128.12 13.079l.053-1.086h-.172c-.483 0-.81-.063-.98-.188-.17-.125-.255-.367-.255-.725V8.173h1.37v-.93h-1.37V5.39h-1.284l-.135 1.854h-.811v.93h.769v3.009c0 .734.189 1.233.569 1.499.379.265 1.008.398 1.885.398h.361zm-6.071-.066V9.145c.036-.143.172-.272.408-.387.423-.207.954-.327 1.596-.359l.032-1.241a1.539 1.539 0 00-.14-.005c-.437 0-.89.113-1.359.338-.272.129-.451.277-.537.441v-.689h-1.462v5.77h1.462zm-6.273-1.074c-.174-.122-.26-.325-.26-.607V8.93c0-.526.347-.79 1.041-.79.344 0 .604.061.779.183.176.122.264.325.264.607v2.402c0 .526-.348.79-1.043.79-.346 0-.607-.061-.781-.183m1.964 1.069c.881-.233 1.321-.813 1.321-1.74V8.995c0-.587-.22-1.047-.661-1.378-.44-.332-1.056-.497-1.845-.497-.79 0-1.404.164-1.843.494s-.659.79-.659 1.381v2.273c0 1.246.835 1.869 2.504 1.869.46 0 .854-.043 1.183-.129m-8.488 2.208v-2.293a2.68 2.68 0 001.101.214c.793 0 1.385-.183 1.778-.55.395-.367.591-.808.591-1.324V8.978c0-.561-.193-1.012-.582-1.351-.389-.338-.902-.507-1.542-.507s-1.187.166-1.642.5l-.145-.376h-1.021v7.973h1.462zm0-3.347V8.495c.093-.093.232-.175.419-.247.186-.071.389-.107.607-.107.655 0 .982.271.982.816v2.336c0 .552-.344.829-1.031.829-.336 0-.662-.084-.977-.253m-6.458 3.347v-2.293c.322.143.689.214 1.102.214.791 0 1.385-.183 1.778-.55.394-.367.591-.808.591-1.324V8.978c0-.561-.193-1.012-.582-1.351-.39-.338-.904-.507-1.543-.507s-1.186.166-1.641.5l-.146-.376h-1.021v7.973h1.462zm0-3.347V8.495c.094-.093.233-.175.42-.247.186-.071.388-.107.605-.107.656 0 .984.271.984.816v2.336c0 .552-.344.829-1.032.829-.335 0-.662-.084-.977-.253m-4.534 1.144h1.376v-5.77h-1.462v3.891c0 .297-.114.521-.344.674a1.367 1.367 0 01-.769.228c-.282 0-.521-.068-.717-.204-.195-.136-.293-.342-.293-.618v-3.97H94.59v4.207c0 .487.166.891.499 1.209s.788.478 1.364.478c.402 0 .768-.067 1.097-.201.329-.135.552-.319.666-.556l.044.632zm-5.464-.367c.357-.328.537-.735.537-1.223 0-.486-.098-.867-.292-1.139-.196-.272-.532-.483-1.008-.634l-1.192-.376c-.266-.082-.398-.242-.398-.48s.063-.407.189-.505c.125-.099.326-.147.601-.147.276 0 .57.039.884.116.314.077.563.164.744.26l.344-.908c-.573-.328-1.222-.49-1.945-.49-1.468 0-2.206.539-2.214 1.617v.043c0 .39.092.722.271.994.181.272.488.476.922.612l1.268.397c.326.104.488.302.488.592 0 .042-.004.089-.01.14-.062.404-.319.607-.774.607-.595 0-1.228-.144-1.901-.43l-.295.994c.591.3 1.34.451 2.25.451.662 0 1.173-.164 1.531-.491m-4.722.433l.112-1.086h-.183c-.388 0-.655-.069-.806-.207-.15-.138-.226-.369-.226-.69V4.874h-1.462v6.243c0 .705.16 1.208.479 1.509s.81.452 1.473.452h.613zm-7.395-1.14c-.174-.122-.261-.325-.261-.607V8.93c0-.526.348-.79 1.042-.79.345 0 .604.061.779.183s.264.325.264.607v2.402c0 .526-.348.79-1.043.79-.347 0-.607-.061-.781-.183m1.964 1.069c.881-.233 1.321-.813 1.321-1.74V8.995c0-.587-.22-1.047-.66-1.378-.441-.332-1.057-.497-1.846-.497-.79 0-1.404.164-1.843.494-.438.33-.658.79-.658 1.381v2.273c0 1.246.835 1.869 2.503 1.869.459 0 .853-.043 1.183-.129m-8.305-1.069c-.173-.122-.26-.325-.26-.607V8.93c0-.526.347-.79 1.043-.79.343 0 .603.061.779.183.175.122.263.325.263.607v2.402c0 .526-.348.79-1.042.79-.348 0-.608-.061-.783-.183m1.965 1.069c.881-.233 1.321-.813 1.321-1.74V8.995c0-.587-.22-1.047-.661-1.378-.44-.332-1.056-.497-1.846-.497-.789 0-1.403.164-1.842.494s-.659.79-.659 1.381v2.273c0 1.246.834 1.869 2.504 1.869.459 0 .853-.043 1.183-.129m-8.757.005V9.048c0-.261.117-.466.352-.615.234-.148.499-.223.792-.223.655 0 .983.248.983.742v4.061h1.461V8.742c0-.49-.16-.883-.481-1.179s-.718-.443-1.193-.443-.882.063-1.222.19c-.341.127-.571.292-.693.492V4.874h-1.462v8.139h1.463zm-3.358-.354c.179-.179.305-.397.376-.656.071-.265.111-.609.118-1.031h-1.364c0 .337-.027.583-.081.739a.501.501 0 01-.269.316c-.126.057-.341.083-.648.083-.306 0-.537-.062-.693-.188s-.233-.338-.233-.64V8.953c0-.541.297-.812.892-.812.265 0 .451.013.559.038a.51.51 0 01.278.182c.125.15.188.485.188 1.004l1.375-.107c0-.813-.196-1.372-.588-1.679-.391-.306-.974-.459-1.748-.459s-1.37.16-1.789.481c-.419.32-.629.769-.629 1.346v2.311c0 .443.102.819.307 1.128.326.501 1.047.751 2.165.751.867-.004 1.462-.163 1.784-.478m-6.149-.189c.417-.454.626-1.008.626-1.662 0-.653-.131-1.158-.395-1.512-.263-.355-.667-.615-1.212-.78l-1.348-.402c-.415-.125-.69-.264-.824-.414-.135-.15-.202-.36-.202-.628v-.08c.025-.527.468-.79 1.327-.79.684 0 1.372.163 2.063.489l.451-1.123c-.709-.412-1.594-.618-2.654-.618-.802 0-1.462.182-1.979.548-.518.365-.776.911-.776 1.638 0 .362.045.678.134.948.089.271.26.52.51.747.251.228.584.402 1 .524l1.354.397c.684.205 1.042.468 1.075.79.014.136.021.238.021.306 0 .352-.088.615-.263.79-.176.175-.477.264-.903.264a5.197 5.197 0 01-2.466-.634l-.548 1.166c.398.222.871.397 1.418.527a6.86 6.86 0 001.558.193c.938-.001 1.616-.229 2.033-.684m-10.704.543h1.461V8.877c0-.506-.149-.926-.449-1.263-.299-.336-.776-.504-1.431-.504-.656 0-1.229.214-1.719.644v-.51h-1.461v5.77h1.461v-3.95a.71.71 0 01.344-.625c.229-.152.489-.229.779-.229.677 0 1.016.249 1.016.747v4.056zm-7.328 1.945c.688 0 1.194-.171 1.521-.513s.489-.814.489-1.415V7.243h-1.462v5.717c0 .638-.308.957-.923.957h-.237l.07 1.042h.542zm1.998-9.832h-1.461v1.295h1.461V5.126zm-3.417 2.117h-1.461v5.77h1.461v-5.77zm0-2.117h-1.461v1.295h1.461V5.126zm-9.906 7.887V7.174l1.988 3.535h1.069l1.982-3.556v5.861h1.494v-7.93h-1.789l-2.225 3.841-2.256-3.841h-1.757v7.93h1.494z"/></svg>